<?xml version="1.0" standalone="no"?>
<!DOCTYPE svg PUBLIC "-//W3C//DTD SVG 20010904//EN"
 "http://www.w3.org/TR/2001/REC-SVG-20010904/DTD/svg10.dtd">
<svg version="1.0" xmlns="http://www.w3.org/2000/svg"
 width="300.000000pt" height="300.000000pt" viewBox="0 0 300.000000 300.000000"
 preserveAspectRatio="xMidYMid meet">
<metadata>
Created by potrace 1.10, written by Peter Selinger 2001-2011
</metadata>
<g transform="translate(0.000000,300.000000) scale(0.100000,-0.100000)"
fill="#000000" stroke="none">
<path d="M1555 2957 c-162 -52 -224 -87 -319 -183 -150 -151 -256 -373 -307
-643 -17 -92 -20 -142 -17 -257 l3 -143 -30 7 c-16 4 -73 7 -125 7 -88 0 -101
-3 -164 -34 -40 -19 -96 -59 -134 -95 l-65 -62 30 -22 29 -21 54 27 c145 72
335 19 397 -110 24 -49 53 -168 53 -214 l0 -30 -62 30 c-53 26 -75 31 -138 31
-88 0 -126 -16 -201 -83 l-50 -45 22 -23 c18 -19 25 -21 48 -12 48 19 143 14
193 -11 56 -27 113 -87 141 -150 28 -60 30 -182 3 -261 -58 -173 -266 -396
-518 -555 l-47 -29 21 -38 c12 -21 27 -38 34 -38 8 0 42 16 76 35 349 191 781
296 1093 266 254 -24 455 -97 683 -248 45 -30 87 -53 92 -51 5 2 116 101 246
222 l235 219 -37 38 -37 38 -76 -68 c-42 -38 -84 -78 -94 -89 -18 -20 -19 -19
-127 53 -316 211 -634 254 -1068 145 -64 -16 -117 -28 -119 -27 -2 2 60 59
137 127 328 287 473 482 532 716 34 134 32 436 -6 799 -30 292 -30 367 4 458
44 117 150 190 329 227 51 10 95 21 98 23 2 3 -6 25 -19 51 l-22 46 -60 0
c-93 0 -245 -26 -321 -55 -100 -37 -175 -87 -246 -163 -172 -182 -205 -368
-155 -877 39 -404 40 -429 25 -441 -8 -6 -42 -26 -75 -44 l-61 -33 -45 32 -45
32 -6 162 c-4 89 -16 254 -28 367 -51 473 -24 604 166 796 50 50 110 106 133
126 l44 34 -19 30 -18 30 -60 -19z m-173 -1792 l44 -25 52 20 c29 11 52 16 52
12 0 -22 -41 -125 -83 -208 -56 -111 -141 -225 -239 -320 -76 -74 -196 -174
-210 -174 -4 0 24 48 63 108 131 200 234 430 254 565 4 26 11 47 15 47 4 0 27
-11 52 -25z"/>
</g>
</svg>
